<svg width="1000" height="693" viewBox="0 0 1000 693" fill="none" xmlns="http://www.w3.org/2000/svg">
<g clip-path="url(#clip0_1_3)">
<path fill-rule="evenodd" clip-rule="evenodd" d="M500 999C775.59 999 999 775.59 999 500C999 224.41 775.59 1 500 1C224.41 1 1 224.41 1 500C1 775.59 224.41 999 500 999ZM500 1000C776.142 1000 1000 776.142 1000 500C1000 223.858 776.142 0 500 0C223.858 0 0 223.858 0 500C0 776.142 223.858 1000 500 1000Z" fill="url(#paint0_linear_1_3)"/>
<path fill-rule="evenodd" clip-rule="evenodd" d="M757.994 852.963C824.089 762.669 865 637.881 865 500C865 362.119 824.089 237.331 757.994 147.037C691.899 56.7431 600.672 1 500 1C399.328 1 308.101 56.7431 242.006 147.037C175.911 237.331 135 362.119 135 500C135 637.881 175.911 762.669 242.006 852.963C308.101 943.257 399.328 999 500 999C600.672 999 691.899 943.257 757.994 852.963ZM500 1000C702.136 1000 866 776.142 866 500C866 223.858 702.136 0 500 0C297.864 0 134 223.858 134 500C134 776.142 297.864 1000 500 1000Z" fill="url(#paint1_linear_1_3)"/>
<path fill-rule="evenodd" clip-rule="evenodd" d="M652.525 853.155C691.728 762.826 716 637.968 716 500C716 362.032 691.728 237.174 652.525 146.845C632.923 101.679 609.607 65.1907 583.768 40.0086C557.934 14.8311 529.628 1 500 1C470.372 1 442.066 14.8311 416.232 40.0086C390.393 65.1907 367.077 101.679 347.475 146.845C308.272 237.174 284 362.032 284 500C284 637.968 308.272 762.826 347.475 853.155C367.077 898.321 390.393 934.809 416.232 959.991C442.066 985.169 470.372 999 500 999C529.628 999 557.934 985.169 583.768 959.991C609.607 934.809 632.923 898.321 652.525 853.155ZM500 1000C619.846 1000 717 776.142 717 500C717 223.858 619.846 0 500 0C380.154 0 283 223.858 283 500C283 776.142 380.154 1000 500 1000Z" fill="url(#paint2_linear_1_3)"/>
</g>
<defs>
<linearGradient id="paint0_linear_1_3" x1="500" y1="0" x2="500" y2="1000" gradientUnits="userSpaceOnUse">
<stop stop-color="#AB97FF"/>
<stop offset="0.229167" stop-color="white" stop-opacity="0"/>
<stop offset="0.8125" stop-color="white" stop-opacity="0"/>
<stop offset="1" stop-color="white"/>
</linearGradient>
<linearGradient id="paint1_linear_1_3" x1="500" y1="0" x2="500" y2="1000" gradientUnits="userSpaceOnUse">
<stop stop-color="#AB97FF"/>
<stop offset="0.229167" stop-color="white" stop-opacity="0"/>
<stop offset="0.8125" stop-color="white" stop-opacity="0"/>
<stop offset="1" stop-color="white"/>
</linearGradient>
<linearGradient id="paint2_linear_1_3" x1="500" y1="0" x2="500" y2="1000" gradientUnits="userSpaceOnUse">
<stop stop-color="#AB97FF"/>
<stop offset="0.229167" stop-color="white" stop-opacity="0"/>
<stop offset="0.8125" stop-color="white" stop-opacity="0"/>
<stop offset="1" stop-color="white"/>
</linearGradient>
<clipPath id="clip0_1_3">
<rect width="1000" height="1000" fill="white"/>
</clipPath>
</defs>
</svg>
