<svg xmlns="http://www.w3.org/2000/svg" xmlns:xlink="http://www.w3.org/1999/xlink" style="width: 100%; height: 100%" viewBox="0 0 1044 1044" preserveAspectRatio="none" width="1044" height="1044"><defs><svg width="1044" height="1044" viewBox="0 0 1044 1044" fill="none" xmlns="http://www.w3.org/2000/svg" id="svg-1828895067_889">
<path opacity="0.1" d="M910.5 522C910.5 736.563 736.563 910.5 522 910.5C307.437 910.5 133.5 736.563 133.5 522C133.5 307.437 307.437 133.5 522 133.5C736.563 133.5 910.5 307.437 910.5 522ZM522 911.5C737.115 911.5 911.5 737.115 911.5 522C911.5 306.885 737.115 132.5 522 132.5C306.885 132.5 132.5 306.885 132.5 522C132.5 737.115 306.885 911.5 522 911.5ZM1043.5 522C1043.5 810.017 810.017 1043.5 522 1043.5C233.984 1043.5 0.5 810.017 0.5 522C0.5 233.984 233.984 0.5 522 0.5C810.017 0.5 1043.5 233.984 1043.5 522Z" stroke="url(&quot;#svg-1828895067_889_paint0_linear_105_903&quot;)" fill="none"></path>
<defs>
<linearGradient id="svg-1828895067_889_paint0_linear_105_903" x1="522" y1="0" x2="522" y2="472.035" gradientUnits="userSpaceOnUse">
<stop stop-color="white"></stop>
<stop offset="1" stop-color="#8EFFEB" stop-opacity="0"></stop>
</linearGradient>
<linearGradient id="svg-1828895067_889_paint0_linear_105_903" x1="522" y1="0" x2="522" y2="472.035" gradientUnits="userSpaceOnUse">
<stop stop-color="white"></stop>
<stop offset="1" stop-color="#8EFFEB" stop-opacity="0"></stop>
</linearGradient></defs>
</svg></defs><use href="#svg-1828895067_889"></use></svg>